<svg id="SvgjsSvg1006" width="659" height="668" xmlns="http://www.w3.org/2000/svg" version="1.1" xmlns:xlink="http://www.w3.org/1999/xlink" xmlns:svgjs="http://svgjs.com/svgjs"><defs id="SvgjsDefs1007"><marker id="SvgjsMarker1126" markerWidth="14" markerHeight="10" refX="10" refY="5" viewBox="0 0 14 10" orient="auto" markerUnits="userSpaceOnUse" stroke-dasharray="0,0"><path id="SvgjsPath1127" d="M0,0 L14,5 L0,10 L0,0" fill="#323232" stroke="#323232" stroke-width="1"></path></marker><marker id="SvgjsMarker1130" markerWidth="14" markerHeight="10" refX="10" refY="5" viewBox="0 0 14 10" orient="auto" markerUnits="userSpaceOnUse" stroke-dasharray="0,0"><path id="SvgjsPath1131" d="M0,0 L14,5 L0,10 L0,0" fill="#323232" stroke="#323232" stroke-width="1"></path></marker><marker id="SvgjsMarker1134" markerWidth="14" markerHeight="10" refX="10" refY="5" viewBox="0 0 14 10" orient="auto" markerUnits="userSpaceOnUse" stroke-dasharray="0,0"><path id="SvgjsPath1135" d="M0,0 L14,5 L0,10 L0,0" fill="#323232" stroke="#323232" stroke-width="1"></path></marker></defs><g id="SvgjsG1008" transform="translate(285,25)"><path id="SvgjsPath1009" d="M 0 0L 171 0L 171 112L 0 112Z" stroke="rgba(50,50,50,1)" stroke-width="2" fill-opacity="1" fill="#64b5f6"></path><g id="SvgjsG1010"><text id="SvgjsText1011" font-family="微软雅黑" text-anchor="middle" font-size="13px" width="151px" fill="#323232" font-weight="400" align="middle" lineHeight="125%" anchor="middle" family="微软雅黑" size="13px" weight="400" font-style="" opacity="1" y="45.375" transform="rotate(0)"></text></g></g><g id="SvgjsG1012" transform="translate(32,25)"><path id="SvgjsPath1013" d="M 0 0L 171 0L 171 112L 0 112Z" stroke="rgba(50,50,50,1)" stroke-width="2" fill-opacity="1" fill="#64b5f6"></path><g id="SvgjsG1014"><text id="SvgjsText1015" font-family="微软雅黑" text-anchor="middle" font-size="13px" width="151px" fill="#323232" font-weight="400" align="middle" lineHeight="125%" anchor="middle" family="微软雅黑" size="13px" weight="400" font-style="" opacity="1" y="45.375" transform="rotate(0)"></text></g></g><g id="SvgjsG1016" transform="translate(31,25)"><path id="SvgjsPath1017" d="M 0 0L 173 0L 173 32.5L 0 32.5Z" stroke="rgba(50,50,50,1)" stroke-width="2" fill-opacity="1" fill="#ffb74d"></path><g id="SvgjsG1018"><text id="SvgjsText1019" font-family="微软雅黑" text-anchor="middle" font-size="19px" width="153px" fill="#ffffff" font-weight="700" align="middle" lineHeight="125%" anchor="middle" family="微软雅黑" size="19px" weight="700" font-style="" opacity="1" y="-0.125" transform="rotate(0)"><tspan id="SvgjsTspan1020" dy="23" x="86.5"><tspan id="SvgjsTspan1021" style="text-decoration:;">APP</tspan></tspan></text></g></g><g id="SvgjsG1022" transform="translate(36,58)"><path id="SvgjsPath1023" d="M 0 0L 167 0L 167 79L 0 79Z" stroke="none" fill="none"></path><g id="SvgjsG1024"><text id="SvgjsText1025" font-family="微软雅黑" text-anchor="middle" font-size="18px" width="167px" fill="#323232" font-weight="700" align="middle" lineHeight="125%" anchor="middle" family="微软雅黑" size="18px" weight="700" font-style="" opacity="1" y="1.25" transform="rotate(0)"><tspan id="SvgjsTspan1026" dy="22" x="83.5"><tspan id="SvgjsTspan1027" style="text-decoration:;">Linux Host</tspan></tspan><tspan id="SvgjsTspan1028" dy="22" x="83.5"><tspan id="SvgjsTspan1029" style="text-decoration:;">开发API直接调用</tspan></tspan><tspan id="SvgjsTspan1030" dy="22" x="83.5"><tspan id="SvgjsTspan1031" style="text-decoration:;">Librados</tspan></tspan></text></g></g><g id="SvgjsG1032" transform="translate(285,25.5)"><path id="SvgjsPath1033" d="M 0 0L 171 0L 171 32L 0 32Z" stroke="rgba(50,50,50,1)" stroke-width="2" fill-opacity="1" fill="#ffb74d"></path><g id="SvgjsG1034"><text id="SvgjsText1035" font-family="微软雅黑" text-anchor="middle" font-size="19px" width="151px" fill="#ffffff" font-weight="700" align="middle" lineHeight="125%" anchor="middle" family="微软雅黑" size="19px" weight="700" font-style="" opacity="1" y="-0.375" transform="rotate(0)"><tspan id="SvgjsTspan1036" dy="23" x="85.5"><tspan id="SvgjsTspan1037" style="text-decoration:;">APP</tspan></tspan></text></g></g><g id="SvgjsG1038" transform="translate(285,57.5)"><path id="SvgjsPath1039" d="M 0 0L 167 0L 167 79L 0 79Z" stroke="none" fill="none"></path><g id="SvgjsG1040"><text id="SvgjsText1041" font-family="微软雅黑" text-anchor="middle" font-size="18px" width="167px" fill="#323232" font-weight="700" align="middle" lineHeight="125%" anchor="middle" family="微软雅黑" size="18px" weight="700" font-style="" opacity="1" y="12.75" transform="rotate(0)"><tspan id="SvgjsTspan1042" dy="22" x="83.5"><tspan id="SvgjsTspan1043" style="text-decoration:;">Linux Host</tspan></tspan><tspan id="SvgjsTspan1044" dy="22" x="83.5"><tspan id="SvgjsTspan1045" style="text-decoration:;">http/https</tspan></tspan></text></g></g><g id="SvgjsG1046" transform="translate(70,268)"><path id="SvgjsPath1047" d="M 0 0L 343 0L 343 52L 0 52Z" stroke="rgba(50,50,50,1)" stroke-width="2" fill-opacity="1" fill="#64b5f6"></path><g id="SvgjsG1048"><text id="SvgjsText1049" font-family="微软雅黑" text-anchor="middle" font-size="18px" width="323px" fill="#323232" font-weight="700" align="middle" lineHeight="125%" anchor="middle" family="微软雅黑" size="18px" weight="700" font-style="" opacity="1" y="10.25" transform="rotate(0)"><tspan id="SvgjsTspan1050" dy="22" x="171.5"><tspan id="SvgjsTspan1051" style="text-decoration:;">Librados（封装rados cluster)</tspan></tspan></text></g></g><g id="SvgjsG1052" transform="translate(25,350)"><path id="SvgjsPath1053" d="M 0 0L 187 0L 187 72L 0 72Z" stroke="rgba(50,50,50,1)" stroke-width="2" fill-opacity="1" fill="#9e9e9e"></path><g id="SvgjsG1054"><text id="SvgjsText1055" font-family="微软雅黑" text-anchor="middle" font-size="13px" width="167px" fill="#323232" font-weight="400" align="middle" lineHeight="125%" anchor="middle" family="微软雅黑" size="13px" weight="400" font-style="" opacity="1" y="25.375" transform="rotate(0)"></text></g></g><g id="SvgjsG1056" transform="translate(25,347)"><path id="SvgjsPath1057" d="M 0 4Q 0 0 4 0L 183 0Q 187 0 187 4L 187 24Q 187 28 183 28L 4 28Q 0 28 0 24Z" stroke="rgba(50,50,50,1)" stroke-width="2" fill-opacity="1" fill="#64b5f6"></path><g id="SvgjsG1058"><text id="SvgjsText1059" font-family="微软雅黑" text-anchor="middle" font-size="13px" width="167px" fill="#323232" font-weight="400" align="middle" lineHeight="125%" anchor="middle" family="微软雅黑" size="13px" weight="400" font-style="" opacity="1" y="3.375" transform="rotate(0)"><tspan id="SvgjsTspan1060" dy="16" x="93.5"><tspan id="SvgjsTspan1061" style="text-decoration:;">Pool1</tspan></tspan></text></g></g><g id="SvgjsG1062" transform="translate(30,385)"><path id="SvgjsPath1063" d="M 0 4Q 0 0 4 0L 62 0Q 66 0 66 4L 66 23Q 66 27 62 27L 4 27Q 0 27 0 23Z" stroke="rgba(50,50,50,1)" stroke-width="2" fill-opacity="1" fill="#64b5f6"></path><g id="SvgjsG1064"><text id="SvgjsText1065" font-family="微软雅黑" text-anchor="middle" font-size="13px" width="46px" fill="#323232" font-weight="400" align="middle" lineHeight="125%" anchor="middle" family="微软雅黑" size="13px" weight="400" font-style="" opacity="1" y="2.875" transform="rotate(0)"><tspan id="SvgjsTspan1066" dy="16" x="33"><tspan id="SvgjsTspan1067" style="text-decoration:;">PG</tspan></tspan></text></g></g><g id="SvgjsG1068" transform="translate(109,385)"><path id="SvgjsPath1069" d="M 0 4Q 0 0 4 0L 62 0Q 66 0 66 4L 66 23Q 66 27 62 27L 4 27Q 0 27 0 23Z" stroke="rgba(50,50,50,1)" stroke-width="2" fill-opacity="1" fill="#64b5f6"></path><g id="SvgjsG1070"><text id="SvgjsText1071" font-family="微软雅黑" text-anchor="middle" font-size="13px" width="46px" fill="#323232" font-weight="400" align="middle" lineHeight="125%" anchor="middle" family="微软雅黑" size="13px" weight="400" font-style="" opacity="1" y="2.875" transform="rotate(0)"><tspan id="SvgjsTspan1072" dy="16" x="33"><tspan id="SvgjsTspan1073" style="text-decoration:;">PG</tspan></tspan></text></g></g><g id="SvgjsG1074" transform="translate(230,351.5)"><path id="SvgjsPath1075" d="M 0 0L 187 0L 187 72L 0 72Z" stroke="rgba(50,50,50,1)" stroke-width="2" fill-opacity="1" fill="#9e9e9e"></path><g id="SvgjsG1076"><text id="SvgjsText1077" font-family="微软雅黑" text-anchor="middle" font-size="13px" width="167px" fill="#323232" font-weight="400" align="middle" lineHeight="125%" anchor="middle" family="微软雅黑" size="13px" weight="400" font-style="" opacity="1" y="25.375" transform="rotate(0)"></text></g></g><g id="SvgjsG1078" transform="translate(230,348.5)"><path id="SvgjsPath1079" d="M 0 4Q 0 0 4 0L 183 0Q 187 0 187 4L 187 24Q 187 28 183 28L 4 28Q 0 28 0 24Z" stroke="rgba(50,50,50,1)" stroke-width="2" fill-opacity="1" fill="#64b5f6"></path><g id="SvgjsG1080"><text id="SvgjsText1081" font-family="微软雅黑" text-anchor="middle" font-size="13px" width="167px" fill="#323232" font-weight="400" align="middle" lineHeight="125%" anchor="middle" family="微软雅黑" size="13px" weight="400" font-style="" opacity="1" y="3.375" transform="rotate(0)"><tspan id="SvgjsTspan1082" dy="16" x="93.5"><tspan id="SvgjsTspan1083" style="text-decoration:;">Pool2</tspan></tspan></text></g></g><g id="SvgjsG1084" transform="translate(235,386.5)"><path id="SvgjsPath1085" d="M 0 4Q 0 0 4 0L 62 0Q 66 0 66 4L 66 23Q 66 27 62 27L 4 27Q 0 27 0 23Z" stroke="rgba(50,50,50,1)" stroke-width="2" fill-opacity="1" fill="#64b5f6"></path><g id="SvgjsG1086"><text id="SvgjsText1087" font-family="微软雅黑" text-anchor="middle" font-size="13px" width="46px" fill="#323232" font-weight="400" align="middle" lineHeight="125%" anchor="middle" family="微软雅黑" size="13px" weight="400" font-style="" opacity="1" y="2.875" transform="rotate(0)"><tspan id="SvgjsTspan1088" dy="16" x="33"><tspan id="SvgjsTspan1089" style="text-decoration:;">PG</tspan></tspan></text></g></g><g id="SvgjsG1090" transform="translate(314,386.5)"><path id="SvgjsPath1091" d="M 0 4Q 0 0 4 0L 62 0Q 66 0 66 4L 66 23Q 66 27 62 27L 4 27Q 0 27 0 23Z" stroke="rgba(50,50,50,1)" stroke-width="2" fill-opacity="1" fill="#64b5f6"></path><g id="SvgjsG1092"><text id="SvgjsText1093" font-family="微软雅黑" text-anchor="middle" font-size="13px" width="46px" fill="#323232" font-weight="400" align="middle" lineHeight="125%" anchor="middle" family="微软雅黑" size="13px" weight="400" font-style="" opacity="1" y="2.875" transform="rotate(0)"><tspan id="SvgjsTspan1094" dy="16" x="33"><tspan id="SvgjsTspan1095" style="text-decoration:;">PG</tspan></tspan></text></g></g><g id="SvgjsG1096" transform="translate(440,350)"><path id="SvgjsPath1097" d="M 0 0L 187 0L 187 72L 0 72Z" stroke="rgba(50,50,50,1)" stroke-width="2" fill-opacity="1" fill="#9e9e9e"></path><g id="SvgjsG1098"><text id="SvgjsText1099" font-family="微软雅黑" text-anchor="middle" font-size="13px" width="167px" fill="#323232" font-weight="400" align="middle" lineHeight="125%" anchor="middle" family="微软雅黑" size="13px" weight="400" font-style="" opacity="1" y="25.375" transform="rotate(0)"></text></g></g><g id="SvgjsG1100" transform="translate(440,347)"><path id="SvgjsPath1101" d="M 0 4Q 0 0 4 0L 183 0Q 187 0 187 4L 187 24Q 187 28 183 28L 4 28Q 0 28 0 24Z" stroke="rgba(50,50,50,1)" stroke-width="2" fill-opacity="1" fill="#64b5f6"></path><g id="SvgjsG1102"><text id="SvgjsText1103" font-family="微软雅黑" text-anchor="middle" font-size="13px" width="167px" fill="#323232" font-weight="400" align="middle" lineHeight="125%" anchor="middle" family="微软雅黑" size="13px" weight="400" font-style="" opacity="1" y="3.375" transform="rotate(0)"><tspan id="SvgjsTspan1104" dy="16" x="93.5"><tspan id="SvgjsTspan1105" style="text-decoration:;">Pool3</tspan></tspan></text></g></g><g id="SvgjsG1106" transform="translate(445,385)"><path id="SvgjsPath1107" d="M 0 4Q 0 0 4 0L 62 0Q 66 0 66 4L 66 23Q 66 27 62 27L 4 27Q 0 27 0 23Z" stroke="rgba(50,50,50,1)" stroke-width="2" fill-opacity="1" fill="#64b5f6"></path><g id="SvgjsG1108"><text id="SvgjsText1109" font-family="微软雅黑" text-anchor="middle" font-size="13px" width="46px" fill="#323232" font-weight="400" align="middle" lineHeight="125%" anchor="middle" family="微软雅黑" size="13px" weight="400" font-style="" opacity="1" y="2.875" transform="rotate(0)"><tspan id="SvgjsTspan1110" dy="16" x="33"><tspan id="SvgjsTspan1111" style="text-decoration:;">PG</tspan></tspan></text></g></g><g id="SvgjsG1112" transform="translate(524,385)"><path id="SvgjsPath1113" d="M 0 4Q 0 0 4 0L 62 0Q 66 0 66 4L 66 23Q 66 27 62 27L 4 27Q 0 27 0 23Z" stroke="rgba(50,50,50,1)" stroke-width="2" fill-opacity="1" fill="#64b5f6"></path><g id="SvgjsG1114"><text id="SvgjsText1115" font-family="微软雅黑" text-anchor="middle" font-size="13px" width="46px" fill="#323232" font-weight="400" align="middle" lineHeight="125%" anchor="middle" family="微软雅黑" size="13px" weight="400" font-style="" opacity="1" y="2.875" transform="rotate(0)"><tspan id="SvgjsTspan1116" dy="16" x="33"><tspan id="SvgjsTspan1117" style="text-decoration:;">PG</tspan></tspan></text></g></g><g id="SvgjsG1118" transform="translate(318.5,165)"><path id="SvgjsPath1119" d="M 0 4Q 0 0 4 0L 96 0Q 100 0 100 4L 100 66Q 100 70 96 70L 4 70Q 0 70 0 66Z" stroke="rgba(50,50,50,1)" stroke-width="2" fill-opacity="1" fill="#64b5f6"></path><g id="SvgjsG1120"><text id="SvgjsText1121" font-family="微软雅黑" text-anchor="middle" font-size="18px" width="80px" fill="#323232" font-weight="700" align="middle" lineHeight="125%" anchor="middle" family="微软雅黑" size="18px" weight="700" font-style="" opacity="1" y="19.25" transform="rotate(0)"><tspan id="SvgjsTspan1122" dy="22" x="50"><tspan id="SvgjsTspan1123" style="text-decoration:;">radosgw</tspan></tspan></text></g></g><g id="SvgjsG1124"><path id="SvgjsPath1125" d="M368.5 137.5L368.5 150.75L368.5 150.75L368.5 161.4" stroke="#323232" stroke-width="2" fill="none" marker-end="url(#SvgjsMarker1126)"></path></g><g id="SvgjsG1128"><path id="SvgjsPath1129" d="M368.5 236L368.5 251.5L241.5 251.5L241.5 264.4" stroke="#323232" stroke-width="2" fill="none" marker-end="url(#SvgjsMarker1130)"></path></g><g id="SvgjsG1132"><path id="SvgjsPath1133" d="M119.5 138L119.5 167L40 167L40 294L66.39999999999998 294" stroke="#323232" stroke-width="2" fill="none" marker-end="url(#SvgjsMarker1134)"></path></g><g id="SvgjsG1136"><path id="SvgjsPath1137" d="M249.02043491481106 320.20112743193994L119.47956508518894 346.79887256806006" stroke="#323232" stroke-width="2" fill="none"></path></g><g id="SvgjsG1138"><path id="SvgjsPath1139" d="M242.44457447147443 320.3282972248417L322.5554255285256 348.1717027751583" stroke="#323232" stroke-width="2" fill="none"></path></g><g id="SvgjsG1140"><path id="SvgjsPath1141" d="M242.4957522612529 320.09207298306103L532.5042477387472 346.90792701693897" stroke="#323232" stroke-width="2" fill="none"></path></g><g id="SvgjsG1142" transform="translate(25,498)"><path id="SvgjsPath1143" d="M 0 0L 609 0L 609 145L 0 145Z" stroke="rgba(50,50,50,1)" stroke-width="2" fill-opacity="1" fill="#64b5f6"></path><g id="SvgjsG1144"><text id="SvgjsText1145" font-family="微软雅黑" text-anchor="middle" font-size="13px" width="589px" fill="#323232" font-weight="400" align="middle" lineHeight="125%" anchor="middle" family="微软雅黑" size="13px" weight="400" font-style="" opacity="1" y="61.875" transform="rotate(0)"></text></g></g><g id="SvgjsG1146" transform="translate(92,498.5)"><path id="SvgjsPath1147" d="M 0 4Q 0 0 4 0L 195 0Q 199 0 199 4L 199 26Q 199 30 195 30L 4 30Q 0 30 0 26Z" stroke="rgba(50,50,50,1)" stroke-width="2" fill-opacity="1" fill="#f57c00"></path><g id="SvgjsG1148"><text id="SvgjsText1149" font-family="微软雅黑" text-anchor="middle" font-size="17px" width="179px" fill="#323232" font-weight="700" align="middle" lineHeight="125%" anchor="middle" family="微软雅黑" size="17px" weight="700" font-style="" opacity="1" y="0.375" transform="rotate(0)"><tspan id="SvgjsTspan1150" dy="21" x="99.5"><tspan id="SvgjsTspan1151" style="text-decoration:;">RADOS cluster</tspan></tspan></text></g></g><g id="SvgjsG1152" transform="translate(30,559.5)"><path id="SvgjsPath1153" d="M 0 4Q 0 0 4 0L 126 0Q 130 0 130 4L 130 71Q 130 75 126 75L 4 75Q 0 75 0 71Z" stroke="rgba(50,50,50,1)" stroke-width="2" fill-opacity="1" fill="#ff9800"></path><g id="SvgjsG1154"><text id="SvgjsText1155" font-family="微软雅黑" text-anchor="middle" font-size="13px" width="110px" fill="#323232" font-weight="400" align="middle" lineHeight="125%" anchor="middle" family="微软雅黑" size="13px" weight="400" font-style="" opacity="1" y="26.875" transform="rotate(0)"></text></g></g><g id="SvgjsG1156" transform="translate(171,559.5)"><path id="SvgjsPath1157" d="M 0 4Q 0 0 4 0L 126 0Q 130 0 130 4L 130 71Q 130 75 126 75L 4 75Q 0 75 0 71Z" stroke="rgba(50,50,50,1)" stroke-width="2" fill-opacity="1" fill="#ff9800"></path><g id="SvgjsG1158"><text id="SvgjsText1159" font-family="微软雅黑" text-anchor="middle" font-size="13px" width="110px" fill="#323232" font-weight="400" align="middle" lineHeight="125%" anchor="middle" family="微软雅黑" size="13px" weight="400" font-style="" opacity="1" y="26.875" transform="rotate(0)"></text></g></g><g id="SvgjsG1160" transform="translate(310,559.5)"><path id="SvgjsPath1161" d="M 0 4Q 0 0 4 0L 126 0Q 130 0 130 4L 130 71Q 130 75 126 75L 4 75Q 0 75 0 71Z" stroke="rgba(50,50,50,1)" stroke-width="2" fill-opacity="1" fill="#ff9800"></path><g id="SvgjsG1162"><text id="SvgjsText1163" font-family="微软雅黑" text-anchor="middle" font-size="13px" width="110px" fill="#323232" font-weight="400" align="middle" lineHeight="125%" anchor="middle" family="微软雅黑" size="13px" weight="400" font-style="" opacity="1" y="26.875" transform="rotate(0)"></text></g></g><g id="SvgjsG1164" transform="translate(36,559.5)"><path id="SvgjsPath1165" d="M 0 0L 112 0L 112 34L 0 34Z" stroke="none" fill="none"></path><g id="SvgjsG1166"><text id="SvgjsText1167" font-family="微软雅黑" text-anchor="middle" font-size="17px" width="112px" fill="#323232" font-weight="700" align="middle" lineHeight="125%" anchor="middle" family="微软雅黑" size="17px" weight="700" font-style="" opacity="1" y="2.375" transform="rotate(0)"><tspan id="SvgjsTspan1168" dy="21" x="56"><tspan id="SvgjsTspan1169" style="text-decoration:;">node1</tspan></tspan></text></g></g><g id="SvgjsG1170" transform="translate(185.5,559.5)"><path id="SvgjsPath1171" d="M 0 0L 112 0L 112 34L 0 34Z" stroke="none" fill="none"></path><g id="SvgjsG1172"><text id="SvgjsText1173" font-family="微软雅黑" text-anchor="middle" font-size="17px" width="112px" fill="#323232" font-weight="700" align="middle" lineHeight="125%" anchor="middle" family="微软雅黑" size="17px" weight="700" font-style="" opacity="1" y="2.375" transform="rotate(0)"><tspan id="SvgjsTspan1174" dy="21" x="56"><tspan id="SvgjsTspan1175" style="text-decoration:;">node2</tspan></tspan></text></g></g><g id="SvgjsG1176" transform="translate(318.5,559.5)"><path id="SvgjsPath1177" d="M 0 0L 112 0L 112 34L 0 34Z" stroke="none" fill="none"></path><g id="SvgjsG1178"><text id="SvgjsText1179" font-family="微软雅黑" text-anchor="middle" font-size="17px" width="112px" fill="#323232" font-weight="700" align="middle" lineHeight="125%" anchor="middle" family="微软雅黑" size="17px" weight="700" font-style="" opacity="1" y="2.375" transform="rotate(0)"><tspan id="SvgjsTspan1180" dy="21" x="56"><tspan id="SvgjsTspan1181" style="text-decoration:;">node3</tspan></tspan></text></g></g><g id="SvgjsG1182" transform="translate(488,515.5)"><path id="SvgjsPath1183" d="M 0 0L 89 0L 89 22L 0 22Z" stroke="rgba(50,50,50,1)" stroke-width="2" fill-opacity="1" fill="#00ff00"></path><g id="SvgjsG1184"><text id="SvgjsText1185" font-family="微软雅黑" text-anchor="middle" font-size="13px" width="69px" fill="#323232" font-weight="400" align="middle" lineHeight="125%" anchor="middle" family="微软雅黑" size="13px" weight="400" font-style="" opacity="1" y="0.375" transform="rotate(0)"><tspan id="SvgjsTspan1186" dy="16" x="44.5"><tspan id="SvgjsTspan1187" style="text-decoration:;">mgr</tspan></tspan></text></g></g><g id="SvgjsG1188" transform="translate(508,535.5)"><path id="SvgjsPath1189" d="M 0 0L 89 0L 89 22L 0 22Z" stroke="rgba(50,50,50,1)" stroke-width="2" fill-opacity="1" fill="#00ff00"></path><g id="SvgjsG1190"><text id="SvgjsText1191" font-family="微软雅黑" text-anchor="middle" font-size="13px" width="69px" fill="#323232" font-weight="400" align="middle" lineHeight="125%" anchor="middle" family="微软雅黑" size="13px" weight="400" font-style="" opacity="1" y="0.375" transform="rotate(0)"><tspan id="SvgjsTspan1192" dy="16" x="44.5"><tspan id="SvgjsTspan1193" style="text-decoration:;">mgr</tspan></tspan></text></g></g><g id="SvgjsG1194" transform="translate(528,555.5)"><path id="SvgjsPath1195" d="M 0 0L 89 0L 89 22L 0 22Z" stroke="rgba(50,50,50,1)" stroke-width="2" fill-opacity="1" fill="#00ff00"></path><g id="SvgjsG1196"><text id="SvgjsText1197" font-family="微软雅黑" text-anchor="middle" font-size="13px" width="69px" fill="#323232" font-weight="400" align="middle" lineHeight="125%" anchor="middle" family="微软雅黑" size="13px" weight="400" font-style="" opacity="1" y="0.375" transform="rotate(0)"><tspan id="SvgjsTspan1198" dy="16" x="44.5"><tspan id="SvgjsTspan1199" style="text-decoration:;">mgr</tspan></tspan></text></g></g><g id="SvgjsG1200" transform="translate(452,567)"><path id="SvgjsPath1201" d="M 0 4Q 0 0 4 0L 62 0Q 66 0 66 4L 66 16Q 66 20 62 20L 4 20Q 0 20 0 16Z" stroke="rgba(50,50,50,1)" stroke-width="2" fill-opacity="1" fill="#ffff00"></path><g id="SvgjsG1202"><text id="SvgjsText1203" font-family="微软雅黑" text-anchor="middle" font-size="13px" width="46px" fill="#323232" font-weight="400" align="middle" lineHeight="125%" anchor="middle" family="微软雅黑" size="13px" weight="400" font-style="" opacity="1" y="-0.625" transform="rotate(0)"><tspan id="SvgjsTspan1204" dy="16" x="33"><tspan id="SvgjsTspan1205" style="text-decoration:;">mon</tspan></tspan></text></g></g><g id="SvgjsG1206" transform="translate(472,587)"><path id="SvgjsPath1207" d="M 0 4Q 0 0 4 0L 62 0Q 66 0 66 4L 66 16Q 66 20 62 20L 4 20Q 0 20 0 16Z" stroke="rgba(50,50,50,1)" stroke-width="2" fill-opacity="1" fill="#ffff00"></path><g id="SvgjsG1208"><text id="SvgjsText1209" font-family="微软雅黑" text-anchor="middle" font-size="13px" width="46px" fill="#323232" font-weight="400" align="middle" lineHeight="125%" anchor="middle" family="微软雅黑" size="13px" weight="400" font-style="" opacity="1" y="-0.625" transform="rotate(0)"><tspan id="SvgjsTspan1210" dy="16" x="33"><tspan id="SvgjsTspan1211" style="text-decoration:;">mon</tspan></tspan></text></g></g><g id="SvgjsG1212" transform="translate(492,607)"><path id="SvgjsPath1213" d="M 0 4Q 0 0 4 0L 62 0Q 66 0 66 4L 66 16Q 66 20 62 20L 4 20Q 0 20 0 16Z" stroke="rgba(50,50,50,1)" stroke-width="2" fill-opacity="1" fill="#ffff00"></path><g id="SvgjsG1214"><text id="SvgjsText1215" font-family="微软雅黑" text-anchor="middle" font-size="13px" width="46px" fill="#323232" font-weight="400" align="middle" lineHeight="125%" anchor="middle" family="微软雅黑" size="13px" weight="400" font-style="" opacity="1" y="-0.625" transform="rotate(0)"><tspan id="SvgjsTspan1216" dy="16" x="33"><tspan id="SvgjsTspan1217" style="text-decoration:;">mon</tspan></tspan></text></g></g><g id="SvgjsG1218" transform="translate(36,607)"><path id="SvgjsPath1219" d="M 0 4Q 0 0 4 0L 44 0Q 48 0 48 4L 48 16Q 48 20 44 20L 4 20Q 0 20 0 16Z" stroke="rgba(50,50,50,1)" stroke-width="2" fill-opacity="1" fill="#64b5f6"></path><g id="SvgjsG1220"><text id="SvgjsText1221" font-family="微软雅黑" text-anchor="middle" font-size="13px" width="28px" fill="#323232" font-weight="400" align="middle" lineHeight="125%" anchor="middle" family="微软雅黑" size="13px" weight="400" font-style="" opacity="1" y="-0.625" transform="rotate(0)"><tspan id="SvgjsTspan1222" dy="16" x="24"><tspan id="SvgjsTspan1223" style="text-decoration:;">OSD</tspan></tspan></text></g></g><g id="SvgjsG1224" transform="translate(92,607)"><path id="SvgjsPath1225" d="M 0 4Q 0 0 4 0L 44 0Q 48 0 48 4L 48 16Q 48 20 44 20L 4 20Q 0 20 0 16Z" stroke="rgba(50,50,50,1)" stroke-width="2" fill-opacity="1" fill="#64b5f6"></path><g id="SvgjsG1226"><text id="SvgjsText1227" font-family="微软雅黑" text-anchor="middle" font-size="13px" width="28px" fill="#323232" font-weight="400" align="middle" lineHeight="125%" anchor="middle" family="微软雅黑" size="13px" weight="400" font-style="" opacity="1" y="-0.625" transform="rotate(0)"><tspan id="SvgjsTspan1228" dy="16" x="24"><tspan id="SvgjsTspan1229" style="text-decoration:;">OSD</tspan></tspan></text></g></g><g id="SvgjsG1230" transform="translate(175,607)"><path id="SvgjsPath1231" d="M 0 4Q 0 0 4 0L 44 0Q 48 0 48 4L 48 16Q 48 20 44 20L 4 20Q 0 20 0 16Z" stroke="rgba(50,50,50,1)" stroke-width="2" fill-opacity="1" fill="#64b5f6"></path><g id="SvgjsG1232"><text id="SvgjsText1233" font-family="微软雅黑" text-anchor="middle" font-size="13px" width="28px" fill="#323232" font-weight="400" align="middle" lineHeight="125%" anchor="middle" family="微软雅黑" size="13px" weight="400" font-style="" opacity="1" y="-0.625" transform="rotate(0)"><tspan id="SvgjsTspan1234" dy="16" x="24"><tspan id="SvgjsTspan1235" style="text-decoration:;">OSD</tspan></tspan></text></g></g><g id="SvgjsG1236" transform="translate(231,607)"><path id="SvgjsPath1237" d="M 0 4Q 0 0 4 0L 44 0Q 48 0 48 4L 48 16Q 48 20 44 20L 4 20Q 0 20 0 16Z" stroke="rgba(50,50,50,1)" stroke-width="2" fill-opacity="1" fill="#64b5f6"></path><g id="SvgjsG1238"><text id="SvgjsText1239" font-family="微软雅黑" text-anchor="middle" font-size="13px" width="28px" fill="#323232" font-weight="400" align="middle" lineHeight="125%" anchor="middle" family="微软雅黑" size="13px" weight="400" font-style="" opacity="1" y="-0.625" transform="rotate(0)"><tspan id="SvgjsTspan1240" dy="16" x="24"><tspan id="SvgjsTspan1241" style="text-decoration:;">OSD</tspan></tspan></text></g></g><g id="SvgjsG1242" transform="translate(318.5,607)"><path id="SvgjsPath1243" d="M 0 4Q 0 0 4 0L 44 0Q 48 0 48 4L 48 16Q 48 20 44 20L 4 20Q 0 20 0 16Z" stroke="rgba(50,50,50,1)" stroke-width="2" fill-opacity="1" fill="#64b5f6"></path><g id="SvgjsG1244"><text id="SvgjsText1245" font-family="微软雅黑" text-anchor="middle" font-size="13px" width="28px" fill="#323232" font-weight="400" align="middle" lineHeight="125%" anchor="middle" family="微软雅黑" size="13px" weight="400" font-style="" opacity="1" y="-0.625" transform="rotate(0)"><tspan id="SvgjsTspan1246" dy="16" x="24"><tspan id="SvgjsTspan1247" style="text-decoration:;">OSD</tspan></tspan></text></g></g><g id="SvgjsG1248" transform="translate(374.5,607)"><path id="SvgjsPath1249" d="M 0 4Q 0 0 4 0L 44 0Q 48 0 48 4L 48 16Q 48 20 44 20L 4 20Q 0 20 0 16Z" stroke="rgba(50,50,50,1)" stroke-width="2" fill-opacity="1" fill="#64b5f6"></path><g id="SvgjsG1250"><text id="SvgjsText1251" font-family="微软雅黑" text-anchor="middle" font-size="13px" width="28px" fill="#323232" font-weight="400" align="middle" lineHeight="125%" anchor="middle" family="微软雅黑" size="13px" weight="400" font-style="" opacity="1" y="-0.625" transform="rotate(0)"><tspan id="SvgjsTspan1252" dy="16" x="24"><tspan id="SvgjsTspan1253" style="text-decoration:;">OSD</tspan></tspan></text></g></g><g id="SvgjsG1254"><path id="SvgjsPath1255" d="M190.80963672365493 497.7765371145151L119.19036327634507 422.7234628854849" stroke="#323232" stroke-width="2" fill="none"></path></g><g id="SvgjsG1256"><path id="SvgjsPath1257" d="M322.6305434426072 423.99400940760955L192.36945655739277 498.0059905923905" stroke="#323232" stroke-width="2" fill="none"></path></g><g id="SvgjsG1258"><path id="SvgjsPath1259" d="M532.5241160178696 422.21828983810815L192.47588398213043 498.28171016189185" stroke="#323232" stroke-width="2" fill="none"></path></g><g id="SvgjsG1260"><path id="SvgjsPath1261" d="M190.54526427057561 528.797455352886L92.95473572942439 559.202544647114" stroke="#323232" stroke-width="2" fill="none"></path></g><g id="SvgjsG1262"><path id="SvgjsPath1263" d="M192.34990269171237 529.0269396688617L240.65009730828763 558.9730603311383" stroke="#323232" stroke-width="2" fill="none"></path></g><g id="SvgjsG1264"><path id="SvgjsPath1265" d="M192.4872801027048 528.6589905619941L383.01271989729514 559.3410094380059" stroke="#323232" stroke-width="2" fill="none"></path></g></svg>